<?xml version="1.0" standalone="no"?>
<!DOCTYPE svg PUBLIC "-//W3C//DTD SVG 20010904//EN"
 "http://www.w3.org/TR/2001/REC-SVG-20010904/DTD/svg10.dtd">
<svg version="1.0" xmlns="http://www.w3.org/2000/svg"
 width="300.000000pt" height="300.000000pt" viewBox="80 60 150.000000 150.000000"
 preserveAspectRatio="none">
<metadata>
Created by potrace 1.10, written by Peter Selinger 2001-2011
</metadata>
<g transform="translate(0.000000,300.000000) scale(0.100000,-0.100000)"
fill="#000000" stroke="none">
<path d="M1504 2310 c-40 -16 -54 -49 -54 -130 l0 -76 -62 -2 c-56 -2 -141
-14 -191 -29 -12 -3 -17 -12 -15 -26 3 -25 17 -26 113 -8 86 16 300 14 392 -4
106 -20 115 -20 111 7 -4 30 -66 48 -196 55 l-103 6 3 76 c3 68 5 76 23 76 14
0 21 -8 24 -25 3 -28 18 -41 38 -33 27 10 10 82 -26 110 -19 14 -28 15 -57 3z"/>
<path d="M1010 2018 c-58 -17 -106 -31 -108 -33 -2 -2 7 -39 19 -83 l22 -81
30 15 c27 15 29 15 24 0 -16 -42 -70 -266 -65 -271 3 -3 66 -22 139 -42 74
-19 142 -38 152 -40 15 -5 17 5 17 106 0 101 -7 130 -25 101 -3 -5 -12 -10
-20 -10 -16 0 -115 163 -115 190 0 13 25 32 78 62 60 34 72 44 54 46 -12 2
-35 19 -50 38 -15 19 -31 34 -37 33 -5 -1 -57 -15 -115 -31z m131 -34 c12 -15
11 -18 -6 -28 -11 -6 -35 -26 -53 -44 -40 -38 -39 -50 14 -143 39 -70 81 -119
101 -119 15 0 19 -105 3 -115 -10 -6 -211 42 -223 55 -5 4 3 53 17 108 14 55
26 110 26 121 0 11 -14 31 -31 44 -25 19 -32 33 -33 62 l-1 38 60 18 c77 22
109 23 126 3z"/>
<path d="M1830 2026 c-5 -14 -21 -32 -35 -42 -14 -9 -25 -19 -25 -23 0 -4 27
-20 61 -36 33 -16 65 -37 69 -45 12 -22 -88 -199 -112 -200 -9 0 -20 5 -23 10
-18 30 -25 -1 -25 -116 0 -116 1 -126 18 -119 9 4 89 34 177 67 87 32 161 60
163 62 2 2 -20 64 -47 136 -28 73 -51 134 -51 136 0 2 12 -1 26 -7 15 -5 28
-8 29 -7 2 2 10 38 18 81 10 56 11 80 3 82 -6 2 -51 11 -101 20 -49 8 -100 18
-113 20 -17 4 -25 0 -32 -19z m184 -46 c37 -14 35 -60 -4 -100 -37 -37 -37
-49 -4 -136 14 -38 30 -82 36 -97 15 -40 4 -47 -135 -98 -131 -47 -137 -46
-137 21 0 54 9 74 38 91 30 17 122 172 122 205 0 22 -29 53 -67 73 -23 11 -30
40 -15 55 9 10 131 0 166 -14z"/>
<path d="M1235 1949 c-60 -38 -116 -72 -123 -76 -11 -6 -4 -24 27 -78 22 -38
42 -74 44 -80 2 -6 18 -3 40 7 l37 18 0 -180 0 -180 233 0 232 0 -3 181 c-2
100 0 179 5 177 4 -2 20 -10 36 -17 15 -8 28 -12 30 -10 10 13 87 148 87 152
0 3 -28 22 -62 42 -35 20 -90 52 -122 72 -47 29 -63 34 -75 25 -94 -67 -180
-68 -256 -2 -19 16 -24 14 -130 -51z m159 -4 c66 -33 126 -33 195 1 l53 27 36
-21 c21 -11 62 -34 92 -50 30 -17 59 -36 63 -44 5 -8 -2 -31 -19 -61 -24 -43
-30 -48 -53 -44 -56 12 -67 -18 -70 -203 -1 -69 -6 -128 -10 -133 -4 -4 -93
-6 -197 -5 l-189 3 -5 157 c-6 176 -13 198 -62 179 -30 -11 -35 -8 -68 58 -16
31 -19 46 -11 54 15 15 174 106 186 106 6 1 32 -10 59 -24z"/>
<path d="M1198 1143 c8 -3 12 -28 12 -73 0 -45 -4 -70 -12 -73 -7 -3 11 -6 40
-6 68 -1 92 21 92 83 0 57 -24 76 -95 75 -27 0 -44 -3 -37 -6z m102 -22 c5
-11 10 -34 10 -51 0 -47 -16 -70 -50 -70 l-30 0 0 70 0 70 30 0 c19 0 33 -7
40 -19z"/>
<path d="M1365 1070 l0 -80 53 0 c50 0 52 1 51 28 0 26 -1 26 -9 5 -7 -17 -18
-23 -40 -23 l-30 0 0 69 c0 46 4 71 13 74 6 3 1 6 -13 6 -25 1 -25 0 -25 -79z"/>
<path d="M1487 1138 c6 -7 21 -43 34 -80 13 -38 26 -68 29 -68 3 0 19 36 37
80 31 79 31 80 10 79 -12 0 -17 -3 -10 -5 8 -4 7 -17 -4 -52 -9 -26 -19 -51
-23 -55 -4 -4 -16 16 -27 45 -15 38 -17 55 -9 60 6 4 -2 8 -18 8 -21 0 -26 -3
-19 -12z"/>
<path d="M1638 1143 c8 -3 12 -28 12 -73 0 -45 -4 -70 -12 -73 -7 -3 3 -5 22
-5 19 0 29 2 23 5 -7 2 -13 20 -13 39 0 27 4 34 19 34 14 0 21 -10 28 -37 7
-30 14 -38 33 -40 15 -1 18 0 8 3 -10 3 -18 13 -18 23 0 9 -6 26 -14 36 -12
17 -12 21 5 33 40 28 7 62 -59 61 -26 0 -41 -3 -34 -6z m77 -33 c0 -18 -6 -26
-22 -28 -20 -3 -23 1 -23 28 0 27 3 31 23 28 16 -2 22 -10 22 -28z"/>
</g>
</svg>
